<mxfile host="app.diagrams.net" modified="2021-03-25T01:02:06.313Z" agent="5.0 (Windows NT 10.0; Win64; x64) AppleWebKit/537.36 (KHTML, like Gecko) Chrome/88.0.4324.192 Safari/537.36 OPR/74.0.3911.218" etag="ZmGWcRBMHrGMxBUWdMBL" version="14.4.8" type="github">
  <diagram id="C5RBs43oDa-KdzZeNtuy" name="Page-1">
    <mxGraphModel dx="2413" dy="1460" grid="0" gridSize="10" guides="1" tooltips="1" connect="1" arrows="1" fold="1" page="1" pageScale="1" pageWidth="1654" pageHeight="1169" math="0" shadow="0">
      <root>
        <mxCell id="WIyWlLk6GJQsqaUBKTNV-0" />
        <mxCell id="WIyWlLk6GJQsqaUBKTNV-1" parent="WIyWlLk6GJQsqaUBKTNV-0" />
        <mxCell id="d-GaU_lvCwM5gpuTR5bK-12" value="" style="edgeStyle=orthogonalEdgeStyle;rounded=0;orthogonalLoop=1;jettySize=auto;html=1;fontSize=16;strokeColor=#327AF8;fontColor=#333333;" edge="1" parent="WIyWlLk6GJQsqaUBKTNV-1" source="d-GaU_lvCwM5gpuTR5bK-10" target="d-GaU_lvCwM5gpuTR5bK-11">
          <mxGeometry relative="1" as="geometry">
            <Array as="points">
              <mxPoint x="150" y="260" />
            </Array>
          </mxGeometry>
        </mxCell>
        <mxCell id="d-GaU_lvCwM5gpuTR5bK-14" value="" style="edgeStyle=orthogonalEdgeStyle;rounded=0;orthogonalLoop=1;jettySize=auto;html=1;fontSize=16;strokeColor=#327AF8;fontColor=#333333;" edge="1" parent="WIyWlLk6GJQsqaUBKTNV-1" source="d-GaU_lvCwM5gpuTR5bK-10" target="d-GaU_lvCwM5gpuTR5bK-13">
          <mxGeometry relative="1" as="geometry" />
        </mxCell>
        <mxCell id="d-GaU_lvCwM5gpuTR5bK-19" style="edgeStyle=orthogonalEdgeStyle;rounded=0;orthogonalLoop=1;jettySize=auto;html=1;fontSize=16;entryX=0;entryY=0.5;entryDx=0;entryDy=0;strokeColor=#327AF8;fontColor=#333333;" edge="1" parent="WIyWlLk6GJQsqaUBKTNV-1" source="d-GaU_lvCwM5gpuTR5bK-10" target="d-GaU_lvCwM5gpuTR5bK-15">
          <mxGeometry relative="1" as="geometry">
            <mxPoint x="140" y="460" as="targetPoint" />
            <Array as="points">
              <mxPoint x="140" y="410" />
            </Array>
          </mxGeometry>
        </mxCell>
        <mxCell id="d-GaU_lvCwM5gpuTR5bK-23" style="edgeStyle=orthogonalEdgeStyle;rounded=0;orthogonalLoop=1;jettySize=auto;html=1;entryX=0;entryY=0.5;entryDx=0;entryDy=0;fontSize=16;strokeColor=#327AF8;fontColor=#333333;" edge="1" parent="WIyWlLk6GJQsqaUBKTNV-1" source="d-GaU_lvCwM5gpuTR5bK-10" target="d-GaU_lvCwM5gpuTR5bK-21">
          <mxGeometry relative="1" as="geometry">
            <Array as="points">
              <mxPoint x="140" y="490" />
            </Array>
          </mxGeometry>
        </mxCell>
        <mxCell id="d-GaU_lvCwM5gpuTR5bK-32" style="edgeStyle=orthogonalEdgeStyle;rounded=0;orthogonalLoop=1;jettySize=auto;html=1;entryX=0;entryY=0.5;entryDx=0;entryDy=0;fontSize=16;strokeColor=#327AF8;fontColor=#333333;" edge="1" parent="WIyWlLk6GJQsqaUBKTNV-1" source="d-GaU_lvCwM5gpuTR5bK-10" target="d-GaU_lvCwM5gpuTR5bK-30">
          <mxGeometry relative="1" as="geometry">
            <Array as="points">
              <mxPoint x="140" y="570" />
            </Array>
          </mxGeometry>
        </mxCell>
        <mxCell id="d-GaU_lvCwM5gpuTR5bK-10" value="Main Screen" style="rounded=1;whiteSpace=wrap;html=1;fillColor=#327AF8;fontColor=#FFFFFF;fontSize=16;strokeColor=none;glass=0;sketch=0;shadow=0;" vertex="1" parent="WIyWlLk6GJQsqaUBKTNV-1">
          <mxGeometry x="80" y="300" width="120" height="60" as="geometry" />
        </mxCell>
        <mxCell id="d-GaU_lvCwM5gpuTR5bK-18" value="" style="edgeStyle=orthogonalEdgeStyle;rounded=0;orthogonalLoop=1;jettySize=auto;html=1;fontSize=16;fontColor=#FFFFFF;strokeColor=#327AF8;" edge="1" parent="WIyWlLk6GJQsqaUBKTNV-1" source="d-GaU_lvCwM5gpuTR5bK-11" target="d-GaU_lvCwM5gpuTR5bK-17">
          <mxGeometry relative="1" as="geometry">
            <Array as="points">
              <mxPoint x="360" y="180" />
              <mxPoint x="240" y="180" />
            </Array>
          </mxGeometry>
        </mxCell>
        <mxCell id="d-GaU_lvCwM5gpuTR5bK-44" value="3 tabs" style="edgeLabel;html=1;align=center;verticalAlign=middle;resizable=0;points=[];fontSize=16;fontColor=#333333;" vertex="1" connectable="0" parent="d-GaU_lvCwM5gpuTR5bK-18">
          <mxGeometry x="-0.0508" y="-1" relative="1" as="geometry">
            <mxPoint as="offset" />
          </mxGeometry>
        </mxCell>
        <mxCell id="d-GaU_lvCwM5gpuTR5bK-28" value="" style="edgeStyle=orthogonalEdgeStyle;rounded=0;orthogonalLoop=1;jettySize=auto;html=1;fontSize=16;strokeColor=#327AF8;fontColor=#333333;" edge="1" parent="WIyWlLk6GJQsqaUBKTNV-1" source="d-GaU_lvCwM5gpuTR5bK-11" target="d-GaU_lvCwM5gpuTR5bK-24">
          <mxGeometry relative="1" as="geometry" />
        </mxCell>
        <mxCell id="d-GaU_lvCwM5gpuTR5bK-43" style="edgeStyle=orthogonalEdgeStyle;rounded=0;orthogonalLoop=1;jettySize=auto;html=1;entryX=0.5;entryY=1;entryDx=0;entryDy=0;strokeColor=#327AF8;fontSize=16;fontColor=#333333;" edge="1" parent="WIyWlLk6GJQsqaUBKTNV-1" source="d-GaU_lvCwM5gpuTR5bK-11" target="d-GaU_lvCwM5gpuTR5bK-26">
          <mxGeometry relative="1" as="geometry">
            <Array as="points">
              <mxPoint x="360" y="180" />
              <mxPoint x="500" y="180" />
            </Array>
          </mxGeometry>
        </mxCell>
        <mxCell id="d-GaU_lvCwM5gpuTR5bK-11" value="Sermons" style="whiteSpace=wrap;html=1;rounded=1;fontSize=16;fontColor=#FFFFFF;fillColor=#327AF8;strokeColor=none;glass=0;sketch=0;shadow=0;" vertex="1" parent="WIyWlLk6GJQsqaUBKTNV-1">
          <mxGeometry x="300" y="220" width="120" height="60" as="geometry" />
        </mxCell>
        <mxCell id="d-GaU_lvCwM5gpuTR5bK-34" value="" style="rounded=0;orthogonalLoop=1;jettySize=auto;html=1;fontSize=16;strokeColor=#327AF8;fontColor=#333333;" edge="1" parent="WIyWlLk6GJQsqaUBKTNV-1" source="d-GaU_lvCwM5gpuTR5bK-13" target="d-GaU_lvCwM5gpuTR5bK-33">
          <mxGeometry relative="1" as="geometry" />
        </mxCell>
        <mxCell id="d-GaU_lvCwM5gpuTR5bK-36" value="" style="edgeStyle=none;rounded=0;orthogonalLoop=1;jettySize=auto;html=1;fontSize=16;strokeColor=#327AF8;fontColor=#333333;" edge="1" parent="WIyWlLk6GJQsqaUBKTNV-1" source="d-GaU_lvCwM5gpuTR5bK-13" target="d-GaU_lvCwM5gpuTR5bK-35">
          <mxGeometry relative="1" as="geometry" />
        </mxCell>
        <mxCell id="d-GaU_lvCwM5gpuTR5bK-39" style="edgeStyle=none;rounded=0;orthogonalLoop=1;jettySize=auto;html=1;fontSize=16;strokeColor=#327AF8;fontColor=#333333;" edge="1" parent="WIyWlLk6GJQsqaUBKTNV-1" source="d-GaU_lvCwM5gpuTR5bK-13" target="d-GaU_lvCwM5gpuTR5bK-37">
          <mxGeometry relative="1" as="geometry" />
        </mxCell>
        <mxCell id="d-GaU_lvCwM5gpuTR5bK-13" value="Discover" style="whiteSpace=wrap;html=1;rounded=1;fontSize=16;fontColor=#FFFFFF;fillColor=#327AF8;strokeColor=none;glass=0;sketch=0;shadow=0;" vertex="1" parent="WIyWlLk6GJQsqaUBKTNV-1">
          <mxGeometry x="300" y="300" width="120" height="60" as="geometry" />
        </mxCell>
        <mxCell id="d-GaU_lvCwM5gpuTR5bK-42" value="" style="edgeStyle=none;rounded=0;orthogonalLoop=1;jettySize=auto;html=1;fontSize=16;strokeColor=#327AF8;fontColor=#333333;" edge="1" parent="WIyWlLk6GJQsqaUBKTNV-1" source="d-GaU_lvCwM5gpuTR5bK-15" target="d-GaU_lvCwM5gpuTR5bK-40">
          <mxGeometry relative="1" as="geometry" />
        </mxCell>
        <mxCell id="d-GaU_lvCwM5gpuTR5bK-15" value="Giving" style="whiteSpace=wrap;html=1;rounded=1;fontSize=16;fontColor=#FFFFFF;fillColor=#327AF8;strokeColor=none;glass=0;sketch=0;shadow=0;" vertex="1" parent="WIyWlLk6GJQsqaUBKTNV-1">
          <mxGeometry x="300" y="380" width="120" height="60" as="geometry" />
        </mxCell>
        <mxCell id="d-GaU_lvCwM5gpuTR5bK-17" value="Video" style="whiteSpace=wrap;html=1;rounded=1;fontSize=16;fontColor=#FFFFFF;fillColor=#327AF8;strokeColor=none;glass=0;sketch=0;shadow=0;" vertex="1" parent="WIyWlLk6GJQsqaUBKTNV-1">
          <mxGeometry x="160" y="80" width="120" height="60" as="geometry" />
        </mxCell>
        <mxCell id="d-GaU_lvCwM5gpuTR5bK-21" value="Locations" style="whiteSpace=wrap;html=1;rounded=1;fontSize=16;fontColor=#FFFFFF;fillColor=#327AF8;strokeColor=none;glass=0;sketch=0;shadow=0;" vertex="1" parent="WIyWlLk6GJQsqaUBKTNV-1">
          <mxGeometry x="300" y="460" width="120" height="60" as="geometry" />
        </mxCell>
        <mxCell id="d-GaU_lvCwM5gpuTR5bK-24" value="Audio" style="whiteSpace=wrap;html=1;rounded=1;fontSize=16;fontColor=#FFFFFF;fillColor=#327AF8;strokeColor=none;glass=0;sketch=0;shadow=0;" vertex="1" parent="WIyWlLk6GJQsqaUBKTNV-1">
          <mxGeometry x="300" y="80" width="120" height="60" as="geometry" />
        </mxCell>
        <mxCell id="d-GaU_lvCwM5gpuTR5bK-26" value="Live" style="whiteSpace=wrap;html=1;rounded=1;fontSize=16;fontColor=#FFFFFF;strokeColor=none;glass=0;sketch=0;shadow=0;fillColor=#327AF8;" vertex="1" parent="WIyWlLk6GJQsqaUBKTNV-1">
          <mxGeometry x="440" y="80" width="120" height="60" as="geometry" />
        </mxCell>
        <mxCell id="d-GaU_lvCwM5gpuTR5bK-30" value="Profile" style="whiteSpace=wrap;html=1;rounded=1;fontSize=16;fontColor=#FFFFFF;fillColor=#327AF8;strokeColor=none;glass=0;sketch=0;shadow=0;" vertex="1" parent="WIyWlLk6GJQsqaUBKTNV-1">
          <mxGeometry x="300" y="540" width="120" height="60" as="geometry" />
        </mxCell>
        <mxCell id="d-GaU_lvCwM5gpuTR5bK-33" value="Event" style="whiteSpace=wrap;html=1;rounded=1;fontSize=16;fontColor=#FFFFFF;fillColor=#327AF8;strokeColor=none;glass=0;sketch=0;shadow=0;" vertex="1" parent="WIyWlLk6GJQsqaUBKTNV-1">
          <mxGeometry x="600" y="135" width="120" height="60" as="geometry" />
        </mxCell>
        <mxCell id="d-GaU_lvCwM5gpuTR5bK-35" value="Groups" style="whiteSpace=wrap;html=1;rounded=1;fontSize=16;fontColor=#FFFFFF;fillColor=#327AF8;strokeColor=none;glass=0;sketch=0;shadow=0;" vertex="1" parent="WIyWlLk6GJQsqaUBKTNV-1">
          <mxGeometry x="600" y="210" width="120" height="60" as="geometry" />
        </mxCell>
        <mxCell id="d-GaU_lvCwM5gpuTR5bK-37" value="Bible" style="whiteSpace=wrap;html=1;rounded=1;shadow=0;fontSize=16;fontColor=#FFFFFF;strokeColor=none;fillColor=#327AF8;glass=0;sketch=0;" vertex="1" parent="WIyWlLk6GJQsqaUBKTNV-1">
          <mxGeometry x="600" y="290" width="120" height="60" as="geometry" />
        </mxCell>
        <mxCell id="d-GaU_lvCwM5gpuTR5bK-40" value="Giving page" style="whiteSpace=wrap;html=1;rounded=1;shadow=0;fontSize=16;fontColor=#FFFFFF;strokeColor=none;fillColor=#327AF8;glass=0;sketch=0;" vertex="1" parent="WIyWlLk6GJQsqaUBKTNV-1">
          <mxGeometry x="560" y="380" width="120" height="60" as="geometry" />
        </mxCell>
      </root>
    </mxGraphModel>
  </diagram>
</mxfile>
